# xmcd CD database file
# Generated: Срд Июн 11 12:03:08 2003 by KSCD
# 
# Track frame offsets:
#       150
#       3109
#       22516
#       42723
#       60766
#       79154
#       99651
#       112019
#       132615
#       151850
#       171844
#       172722
#
# Disc length: 2563 seconds
#
# Revision: 1
# Processed by: cddbd v1.4PL0 Copyright (c) Steve Scherf et al.
# Submitted via: Kscd 1.3.3
#
DISCID=840a010c
DTITLE=Юрий Лоза - Заповедные места
DYEAR=1900
DGENRE=
TTITLE0=Вокзал
TTITLE1=К тебе,Москва
TTITLE2=Не так
TTITLE3=Детские глаза
TTITLE4=Там далеко
TTITLE5=Лохматый мой друг
TTITLE6=Заповедные места
TTITLE7=Нашей любви ночь
TTITLE8=Памяти Виктора Резникова
TTITLE9=Ты был прав
TTITLE10=Море
TTITLE11=Санта-Круз
EXTD=
EXTT0=
EXTT1=
EXTT2=
EXTT3=
EXTT4=
EXTT5=
EXTT6=
EXTT7=
EXTT8=
EXTT9=
EXTT10=
EXTT11=
PLAYORDER=
